<?xml version="1.0" encoding="UTF-8" standalone="no"?>
<svg version="1.1" id="svg1" width="580.17188" height="177.96484" viewBox="0 0 580.17188 177.96484"
   xmlns="http://www.w3.org/2000/svg" xmlns:svg="http://www.w3.org/2000/svg">
   <defs id="defs1">
      <clipPath clipPathUnits="userSpaceOnUse" id="clipPath552">
         <path d="M 84.383,224.2 H 527.617 V 361.1 H 84.383 Z" transform="translate(-90.317402,-316.62991)"
            id="path552" />
      </clipPath>
      <clipPath clipPathUnits="userSpaceOnUse" id="clipPath553">
         <path d="M 84.383,224.2 H 527.617 V 361.1 H 84.383 Z" transform="matrix(1,0,0,-1,-302.90918,352.31391)"
            id="path553" />
      </clipPath>
      <clipPath clipPathUnits="userSpaceOnUse" id="clipPath555">
         <path d="M 84.383,224.2 H 527.617 V 361.1 H 84.383 Z" transform="translate(-304.06741,-345.62991)"
            id="path555" />
      </clipPath>
      <clipPath clipPathUnits="userSpaceOnUse" id="clipPath557">
         <path d="M 84.383,224.2 H 527.617 V 361.1 H 84.383 Z" transform="translate(-283.56743,-292.37991)"
            id="path557" />
      </clipPath>
      <clipPath clipPathUnits="userSpaceOnUse" id="clipPath559">
         <path d="M 84.383,224.2 H 527.617 V 361.1 H 84.383 Z" transform="translate(-357.31741,-292.37991)"
            id="path559" />
      </clipPath>
      <clipPath clipPathUnits="userSpaceOnUse" id="clipPath560">
         <path d="M 84.383,224.2 H 527.617 V 361.1 H 84.383 Z" transform="matrix(1,0,0,-1,-302.60551,226.7143)"
            id="path560" />
      </clipPath>
      <clipPath clipPathUnits="userSpaceOnUse" id="clipPath562">
         <path d="M 84.383,224.2 H 527.617 V 361.1 H 84.383 Z" transform="translate(-304.06741,-239.12991)"
            id="path562" />
      </clipPath>
      <clipPath clipPathUnits="userSpaceOnUse" id="clipPath564">
         <path d="M 84.383,224.2 H 527.617 V 361.1 H 84.383 Z" transform="translate(-250.81741,-292.37991)"
            id="path564" />
      </clipPath>
      <clipPath clipPathUnits="userSpaceOnUse" id="clipPath566">
         <path d="M 84.383,224.2 H 527.617 V 361.1 H 84.383 Z" transform="translate(-521.68261,-316.62991)"
            id="path566" />
      </clipPath>
   </defs>
   <g id="g459" transform="translate(-2625.9142,-575.74946)">
      <g id="g550">
         <g id="g662">
            <path id="path551"
               d="M 0,0 H 136.5 V -48.5 H 7 c 0,0 -5.385,0.671 -6,3.75 -0.5,2.5 9.25,3.507 9.25,8.25 0,4.25 -9.25,1.763 -9.25,8 0,4.25 11.25,4.75 11.5,9.25 0.422,7.597 -15.502,3.222 -13.75,9.5 0.745,2.669 4.762,2.741 4.5,5.5 C 3.053,-2.173 0,0 0,0 Z"
               style="fill:none;stroke:#ffffff;stroke-width:1;stroke-linecap:butt;stroke-linejoin:miter;stroke-miterlimit:3.864;stroke-dasharray:none;stroke-opacity:1"
               transform="matrix(1.3333333,0,0,-1.3333333,2628.4232,633.8268)" clip-path="url(#clipPath552)" />
            <text id="text552" xml:space="preserve" transform="matrix(1.3333333,0,0,1.3333333,2760.4753,678.64067)">
               <tspan id="tspan552"
                  style="font-variant:normal;font-weight:normal;font-stretch:normal;font-size:36px;font-family:'Times New Roman';writing-mode:lr-tb;fill:#ffffff;fill-opacity:1;fill-rule:nonzero;stroke:none"
                  x="0" y="0">N</tspan>
            </text>
            <text id="text553" xml:space="preserve" transform="matrix(1.3333333,0,0,1.3333333,2911.8789,586.24813)"
               clip-path="url(#clipPath553)">
               <tspan id="tspan553"
                  style="font-variant:normal;font-weight:normal;font-stretch:normal;font-size:11px;font-family:Arial;writing-mode:lr-tb;fill:#ffffff;fill-opacity:1;fill-rule:nonzero;stroke:none"
                  x="0" y="0">B</tspan>
            </text>
            <path id="path554"
               d="M 0,0 C 0,1.104 0.895,2 2,2 3.104,2 4,1.104 4,0 4,-1.104 3.104,-2 2,-2 0.895,-2 0,-1.104 0,0"
               style="fill:#ffffff;fill-opacity:1;fill-rule:evenodd;stroke:none"
               transform="matrix(1.3333333,0,0,-1.3333333,2913.4232,595.16013)" clip-path="url(#clipPath555)" />
            <path id="path556"
               d="M 0,0 C 0,12.427 10.073,22.5 22.5,22.5 34.927,22.5 45,12.427 45,0 45,-12.427 34.927,-22.5 22.5,-22.5 10.073,-22.5 0,-12.427 0,0 Z"
               style="fill:none;stroke:#ffffff;stroke-width:1;stroke-linecap:butt;stroke-linejoin:miter;stroke-miterlimit:3.864;stroke-dasharray:none;stroke-opacity:1"
               transform="matrix(1.3333333,0,0,-1.3333333,2886.0899,666.16013)" clip-path="url(#clipPath557)" />
            <text id="text557" xml:space="preserve" transform="matrix(1.3333333,0,0,1.3333333,2995.2071,669.9812)">
               <tspan id="tspan557"
                  style="font-variant:normal;font-weight:normal;font-stretch:normal;font-size:11px;font-family:Arial;writing-mode:lr-tb;fill:#ffffff;fill-opacity:1;fill-rule:nonzero;stroke:none"
                  x="0" y="0">C</tspan>
            </text>
            <path id="path558"
               d="M 0,0 C 0,1.104 0.895,2 2,2 3.104,2 4,1.104 4,0 4,-1.104 3.104,-2 2,-2 0.895,-2 0,-1.104 0,0"
               style="fill:#ffffff;fill-opacity:1;fill-rule:evenodd;stroke:none"
               transform="matrix(1.3333333,0,0,-1.3333333,2984.4232,666.16013)" clip-path="url(#clipPath559)" />
            <text id="text559" xml:space="preserve" transform="matrix(1.3333333,0,0,1.3333333,2911.474,753.71427)"
               clip-path="url(#clipPath560)">
               <tspan id="tspan559"
                  style="font-variant:normal;font-weight:normal;font-stretch:normal;font-size:11px;font-family:Arial;writing-mode:lr-tb;fill:#ffffff;fill-opacity:1;fill-rule:nonzero;stroke:none"
                  x="0" y="0">D</tspan>
            </text>
            <path id="path561"
               d="M 0,0 C 0,1.104 0.895,2 2,2 3.104,2 4,1.104 4,0 4,-1.104 3.104,-2 2,-2 0.895,-2 0,-1.104 0,0"
               style="fill:#ffffff;fill-opacity:1;fill-rule:evenodd;stroke:none"
               transform="matrix(1.3333333,0,0,-1.3333333,2913.4232,737.16013)" clip-path="url(#clipPath562)" />
            <text id="text562" xml:space="preserve" transform="matrix(1.3333333,0,0,1.3333333,2828.5756,669.9812)">
               <tspan id="tspan562"
                  style="font-variant:normal;font-weight:normal;font-stretch:normal;font-size:11px;font-family:Arial;writing-mode:lr-tb;fill:#ffffff;fill-opacity:1;fill-rule:nonzero;stroke:none"
                  x="0" y="0">A</tspan>
            </text>
            <path id="path563"
               d="M 0,0 C 0,1.104 0.896,2 2,2 3.104,2 4,1.104 4,0 4,-1.104 3.104,-2 2,-2 0.896,-2 0,-1.104 0,0"
               style="fill:#ffffff;fill-opacity:1;fill-rule:evenodd;stroke:none"
               transform="matrix(1.3333333,0,0,-1.3333333,2842.4232,666.16013)" clip-path="url(#clipPath564)" />
            <text id="text564" xml:space="preserve" transform="matrix(1.3333333,0,0,1.3333333,2885.5436,711.9148)">
               <tspan id="tspan564"
                  style="font-variant:normal;font-weight:normal;font-stretch:normal;font-size:11px;font-family:Arial;writing-mode:lr-tb;fill:#ffffff;fill-opacity:1;fill-rule:nonzero;stroke:none"
                  x="0" y="0">Compass</tspan>
            </text>
            <path id="path565"
               d="M 0,0 H -136.5 V -48.5 H -7 c 0,0 5.385,0.671 6,3.75 0.5,2.5 -9.25,3.507 -9.25,8.25 0,4.25 9.25,1.763 9.25,8 0,4.25 -11.25,4.75 -11.5,9.25 -0.422,7.597 15.502,3.222 13.75,9.5 -0.745,2.669 -4.762,2.741 -4.5,5.5 C -3.053,-2.173 0,0 0,0 Z"
               style="fill:none;stroke:#ffffff;stroke-width:1;stroke-linecap:butt;stroke-linejoin:miter;stroke-miterlimit:3.864;stroke-dasharray:none;stroke-opacity:1"
               transform="matrix(1.3333333,0,0,-1.3333333,3203.5768,633.8268)" clip-path="url(#clipPath566)" />
            <text id="text566" xml:space="preserve" transform="matrix(1.3333333,0,0,1.3333333,3036.8087,678.64067)">
               <tspan id="tspan566"
                  style="font-variant:normal;font-weight:normal;font-stretch:normal;font-size:36px;font-family:'Times New Roman';writing-mode:lr-tb;fill:#ffffff;fill-opacity:1;fill-rule:nonzero;stroke:none"
                  x="0" y="0">S</tspan>
            </text>
         </g>
      </g>
   </g>
</svg>